<?xml version="1.0" encoding="UTF-8"?>
<svg xmlns="http://www.w3.org/2000/svg" viewBox="0 0 800 600" width="800" height="600">
  <!-- Background -->
  <rect width="800" height="600" fill="#1a1a2e" rx="0"/>
  
  <!-- Desk surface -->
  <rect x="0" y="480" width="800" height="120" fill="#2d2d44"/>
  <rect x="0" y="478" width="800" height="4" fill="#3d3d5c" rx="2"/>
  
  <!-- Laptop Screen - Back casing -->
  <path d="M200 100 L600 100 L610 105 Q612 107 612 110 L612 380 Q612 383 610 385 L190 385 Q188 383 188 380 L188 110 Q188 107 190 105 Z" fill="#2c2c2c"/>
  
  <!-- Screen bezel -->
  <rect x="205" y="108" width="390" height="270" rx="5" fill="#1a1a1a"/>
  
  <!-- Screen display -->
  <rect x="220" y="120" width="360" height="245" rx="3" fill="#0f3460"/>
  
  <!-- Screen content - code/desktop look -->
  <!-- Gradient background on screen -->
  <defs>
    <linearGradient id="screenGrad" x1="0%" y1="0%" x2="100%" y2="100%">
      <stop offset="0%" style="stop-color:#16213e;stop-opacity:1"/>
      <stop offset="100%" style="stop-color:#0f3460;stop-opacity:1"/>
    </linearGradient>
    <linearGradient id="keyboardGrad" x1="0%" y1="0%" x2="0%" y2="100%">
      <stop offset="0%" style="stop-color:#3a3a3a;stop-opacity:1"/>
      <stop offset="100%" style="stop-color:#2a2a2a;stop-opacity:1"/>
    </linearGradient>
  </defs>
  <rect x="220" y="120" width="360" height="245" rx="3" fill="url(#screenGrad)"/>
  
  <!-- Taskbar -->
  <rect x="220" y="340" width="360" height="25" fill="#0a0a23" opacity="0.8"/>
  
  <!-- Taskbar icons -->
  <circle cx="240" cy="352" r="6" fill="#e94560"/>
  <rect x="255" y="347" width="12" height="10" rx="2" fill="#533483"/>
  <rect x="275" y="347" width="12" height="10" rx="2" fill="#0f3460"/>
  
  <!-- Window on screen -->
  <rect x="240" y="135" width="320" height="195" rx="5" fill="#1a1a2e" stroke="#333" stroke-width="1"/>
  
  <!-- Window title bar -->
  <rect x="240" y="135" width="320" height="25" rx="5" fill="#2d2d44"/>
  <rect x="240" y="150" width="320" height="10" fill="#2d2d44"/>
  
  <!-- Window buttons -->
  <circle cx="255" cy="147" r="5" fill="#ff5f56"/>
  <circle cx="270" cy="147" r="5" fill="#ffbd2e"/>
  <circle cx="285" cy="147" r="5" fill="#27c93f"/>
  
  <!-- Code lines on screen -->
  <rect x="255" y="170" width="120" height="8" rx="2" fill="#e94560" opacity="0.8"/>
  <rect x="255" y="185" width="180" height="8" rx="2" fill="#533483" opacity="0.7"/>
  <rect x="270" y="200" width="150" height="8" rx="2" fill="#4ecca3" opacity="0.7"/>
  <rect x="270" y="215" width="200" height="8" rx="2" fill="#eeeeee" opacity="0.5"/>
  <rect x="270" y="230" width="130" height="8" rx="2" fill="#4ecca3" opacity="0.7"/>
  <rect x="270" y="245" width="170" height="8" rx="2" fill="#eeeeee" opacity="0.5"/>
  <rect x="255" y="260" width="90" height="8" rx="2" fill="#e94560" opacity="0.8"/>
  <rect x="255" y="275" width="220" height="8" rx="2" fill="#533483" opacity="0.7"/>
  <rect x="270" y="290" width="160" height="8" rx="2" fill="#4ecca3" opacity="0.7"/>
  <rect x="270" y="305" width="140" height="8" rx="2" fill="#eeeeee" opacity="0.5"/>
  
  <!-- Webcam -->
  <circle cx="400" cy="113" r="3" fill="#333"/>
  <circle cx="400" cy="113" r="1.5" fill="#1a1a1a"/>
  
  <!-- Screen hinge -->
  <rect x="195" y="382" width="410" height="8" rx="3" fill="#222"/>
  
  <!-- Laptop Base/Keyboard area -->
  <path d="M170 390 L630 390 L650 478 L150 478 Z" fill="url(#keyboardGrad)"/>
  <path d="M170 390 L630 390 L650 478 L150 478 Z" fill="none" stroke="#444" stroke-width="1.5"/>
  
  <!-- Keyboard rows -->
  <!-- Row 1 -->
  <rect x="210" y="400" width="22" height="14" rx="2" fill="#444" stroke="#555" stroke-width="0.5"/>
  <rect x="235" y="400" width="22" height="14" rx="2" fill="#444" stroke="#555" stroke-width="0.5"/>
  <rect x="260" y="400" width="22" height="14" rx="2" fill="#444" stroke="#555" stroke-width="0.5"/>
  <rect x="285" y="400" width="22" height="14" rx="2" fill="#444" stroke="#555" stroke-width="0.5"/>
  <rect x="310" y="400" width="22" height="14" rx="2" fill="#444" stroke="#555" stroke-width="0.5"/>
  <rect x="335" y="400" width="22" height="14" rx="2" fill="#444" stroke="#555" stroke-width="0.5"/>
  <rect x="360" y="400" width="22" height="14" rx="2" fill="#444" stroke="#555" stroke-width="0.5"/>
  <rect x="385" y="400" width="22" height="14" rx="2" fill="#444" stroke="#555" stroke-width="0.5"/>
  <rect x="410" y="400" width="22" height="14" rx="2" fill="#444" stroke="#555" stroke-width="0.5"/>
  <rect x="435" y="400" width="22" height="14" rx="2" fill="#444" stroke="#555" stroke-width="0.5"/>
  <rect x="460" y="400" width="22" height="14" rx="2" fill="#444" stroke="#555" stroke-width="0.5"/>
  <rect x="485" y="400" width="22" height="14" rx="2" fill="#444" stroke="#555" stroke-width="0.5"/>
  <rect x="510" y="400" width="22" height="14" rx="2" fill="#444" stroke="#555" stroke-width="0.5"/>
  <rect x="535" y="400" width="40" height="14" rx="2" fill="#444" stroke="#555" stroke-width="0.5"/>
  
  <!-- Row 2 -->
  <rect x="215" y="418" width="30" height="14" rx="2" fill="#444" stroke="#555" stroke-width="0.5"/>
  <rect x="248" y="418" width="22" height="14" rx="2" fill="#444" stroke="#555" stroke-width="0.5"/>
  <rect x="273" y="418" width="22" height="14" rx="2" fill="#444" stroke="#555" stroke-width="0.5"/>
  <rect x="298" y="418" width="22" height="14" rx="2" fill="#444" stroke="#555" stroke-width="0.5"/>
  <rect x="323" y="418" width="22" height="14" rx="2" fill="#444" stroke="#555" stroke-width="0.5"/>
  <rect x="348" y="418" width="22" height="14" rx="2" fill="#444" stroke="#555" stroke-width="0.5"/>
  <rect x="373" y="418" width="22" height="14" rx="2" fill="#444" stroke="#555" stroke-width="0.5"/>
  <rect x="398" y="418" width="22" height="14" rx="2" fill="#444" stroke="#555" stroke-width="0.5"/>
  <rect x="423" y="418" width="22" height="14" rx="2" fill="#444" stroke="#555" stroke-width="0.5"/>
  <rect x="448" y="418" width="22" height="14" rx="2" fill="#444" stroke="#555" stroke-width="0.5"/>
  <rect x="473" y="418" width="22" height="14" rx="2" fill="#444" stroke="#555" stroke-width="0.5"/>
  <rect x="498" y="418" width="22" height="14" rx="2" fill="#444" stroke="#555" stroke-width="0.5"/>
  <rect x="523" y="418" width="38" height="14" rx="2" fill="#444" stroke="#555" stroke-width="0.5"/>
  
  <!-- Row 3 -->
  <rect x="218" y="436" width="35" height="14" rx="2" fill="#444" stroke="#555" stroke-width="0.5"/>
  <rect x="256" y="436" width="22" height="14" rx="2" fill="#444" stroke="#555" stroke-width="0.5"/>
  <rect x="281" y="436" width="22" height="14" rx="2" fill="#444" stroke="#555" stroke-width="0.5"/>
  <rect x="306" y="436" width="22" height="14" rx="2" fill="#444" stroke="#555" stroke-width="0.5"/>
  <rect x="331" y="436" width="22" height="14" rx="2" fill="#444" stroke="#555" stroke-width="0.5"/>
  <rect x="356" y="436" width="22" height="14" rx="2" fill="#444" stroke="#555" stroke-width="0.5"/>
  <rect x="381" y="436" width="22" height="14" rx="2" fill="#444" stroke="#555" stroke-width="0.5"/>
  <rect x="406" y="436" width="22" height="14" rx="2" fill="#444" stroke="#555" stroke-width="0.5"/>
  <rect x="431" y="436" width="22" height="14" rx="2" fill="#444" stroke="#555" stroke-width="0.5"/>
  <rect x="456" y="436" width="22" height="14" rx="2" fill="#444" stroke="#555" stroke-width="0.5"/>
  <rect x="481" y="436" width="22" height="14" rx="2" fill="#444" stroke="#555" stroke-width="0.5"/>
  <rect x="506" y="436" width="45" height="14" rx="2" fill="#444" stroke="#555" stroke-width="0.5"/>
  
  <!-- Row 4 - Space bar row -->
  <rect x="222" y="454" width="40" height="14" rx="2" fill="#444" stroke="#555" stroke-width="0.5"/>
  <rect x="265" y="454" width="25" height="14" rx="2" fill="#444" stroke="#555" stroke-width="0.5"/>
  <rect x="293" y="454" width="25" height="14" rx="2" fill="#444" stroke="#555" stroke-width="0.5"/>
  <rect x="321" y="454" width="150" height="14" rx="2" fill="#444" stroke="#555" stroke-width="0.5"/>
  <rect x="474" y="454" width="25" height="14" rx="2" fill="#444" stroke="#555" stroke-width="0.5"/>
  <rect x="502" y="454" width="25" height="14" rx="2" fill="#444" stroke="#555" stroke-width="0.5"/>
  <rect x="530" y="454" width="25" height="14" rx="2" fill="#444" stroke="#555" stroke-width="0.5"/>
  
  <!-- Trackpad -->
  <rect x="340" y="472" width="120" height="5" rx="2" fill="#3a3a3a" stroke="#555" stroke-width="0.5" opacity="0.5"/>
  
  <!-- Laptop front edge -->
  <path d="M150 478 L650 478 L645 485 Q643 488 640 488 L160 488 Q157 488 155 485 Z" fill="#252525" stroke="#444" stroke-width="1"/>
  
  <!-- Power indicator light -->
  <circle cx="400" cy="483" r="2" fill="#4ecca3">
    <animate attributeName="opacity" values="1;0.3;1" dur="3s" repeatCount="indefinite"/>
  </circle>
  
  <!-- Shadow under laptop -->
  <ellipse cx="400" cy="490" rx="260" ry="8" fill="rgba(0,0,0,0.3)"/>
  
  <!-- Ambient light reflection on desk -->
  <ellipse cx="400" cy="500" rx="150" ry="20" fill="#0f3460" opacity="0.1"/>
  
  <!-- Small details - USB port on side -->
  <rect x="168" y="430" width="3" height="8" rx="1" fill="#555"/>
  <rect x="168" y="445" width="3" height="6" rx="1" fill="#555"/>
  
  <!-- Brand logo on back of screen (subtle) -->
  <circle cx="400" cy="240" r="0" fill="#444" opacity="0"/>
  
  <!-- Screen glow effect -->
  <rect x="220" y="120" width="360" height="245" rx="3" fill="none" stroke="#0f3460" stroke-width="2" opacity="0.3"/>
</svg>
